# xmcd CD Database Entry
#
# Track frame offsets:
# 187
# 21402
# 43737
# 61300
# 89190
# 111312
# 134042
# 156952
# 180137
#
# Disc length: 2674 seconds
#
# Revision: 2
# Processed by: cddbd v1.5.1PL2 Copyright (c) Steve Scherf et al.
# Submitted via: tcd 2.0b
#
DISCID=800a7009
DTITLE=????? - VERSE
DYEAR=1900
DGENRE=
TTITLE0=Sincerely
TTITLE1=?????????
TTITLE2=????????
TTITLE3=????????
TTITLE4=Passage
TTITLE5=??????
TTITLE6=???????????
TTITLE7=??????
TTITLE8=My Heart New York City
EXTD=
EXTT0=
EXTT1=
EXTT2=
EXTT3=
EXTT4=
EXTT5=
EXTT6=
EXTT7=
EXTT8=
PLAYORDER=
